<svg xmlns="http://www.w3.org/2000/svg" width="700" height="900" viewBox="0 0 700 900" role="img">
  <!-- Featured Award card. Double-brace tokens are filled by renderCard (shared/restaurantCard.mjs). -->
  <title>{{TITLE}}</title>
  <style>
{{FONT_FACES}}
    .rc-display { font-family: Archivo, 'Public Sans', system-ui, sans-serif; }
    .rc-label { font-family: 'Public Sans', system-ui, sans-serif; }
  </style>
  <defs>
    <filter id="rc-card-shadow" x="-20%" y="-20%" width="140%" height="140%">
      <!-- Tight blur: a defined edge without the floating look of a soft shadow -->
      <feDropShadow dx="4" dy="6" stdDeviation="6" flood-color="#000" flood-opacity="0.65"/>
    </filter>
    <g id="rc-grade-box">
      <rect x="0.5" y="0.5" width="55" height="55" fill="#272727" stroke="{{GRADE_COLOR}}" stroke-opacity="0.8" stroke-width="1" shape-rendering="crispEdges"/>
      <text x="28" y="38" class="rc-label" font-weight="700" font-size="28" fill="{{GRADE_COLOR}}" text-anchor="middle">{{GRADE}}</text>
    </g>
    <clipPath id="rc-inside-border">
      <path d="M72.5 8.5 L427.5 8.5 L427.5 72.5 L491.5 72.5 L491.5 627.5 L427.5 627.5 L427.5 691.5 L72.5 691.5 L72.5 627.5 L8.5 627.5 L8.5 72.5 L72.5 72.5 Z"/>
    </clipPath>
  </defs>
  <!-- Card: 5:7 playing-card body. Transparent around it; the Instagram export adds its own backdrop -->
  <!-- 100px margin so the shadow blur is not clipped by the SVG edge -->
  <g transform="translate(100 100)">
    <rect width="500" height="700" fill="#2b2b2b" filter="url(#rc-card-shadow)"/>

    <!-- Score as a faint diagonal texture: separate glyphs, not a pattern tile, so no digit is cut at tile seams -->
    <g clip-path="url(#rc-inside-border)">
      <g transform="rotate(-45 250 350)" class="rc-display" font-weight="800" font-size="200" fill="#272727" stroke="none" text-anchor="middle">
{{SCORE_GLYPHS}}
      </g>
    </g>

    <!-- Border 0.5rem (8px) in, stepped around a grade box at each corner -->
    <!-- crispEdges snaps 1px strokes to device pixels so display scaling cannot blur them -->
    <path d="M72.5 8.5 L427.5 8.5 L427.5 72.5 L491.5 72.5 L491.5 627.5 L427.5 627.5 L427.5 691.5 L72.5 691.5 L72.5 627.5 L8.5 627.5 L8.5 72.5 L72.5 72.5 Z"
          fill="none" stroke="{{GRADE_COLOR}}" stroke-opacity="0.8" stroke-width="1" shape-rendering="crispEdges"/>

    <!-- Grade boxes: dashboard .badge-box scaled 44px to 56px; bottom pair upside down -->
    <use href="#rc-grade-box" x="8" y="8"/>
    <use href="#rc-grade-box" x="436" y="8"/>
    <use href="#rc-grade-box" x="8" y="636" transform="rotate(180 36 664)"/>
    <use href="#rc-grade-box" x="436" y="636" transform="rotate(180 464 664)"/>

    <!-- Restaurant block (name, borough, cuisine), then score block -->
{{NAME_LINES}}
{{SUB_LINES}}
    <text x="250" y="{{SCORE_LABEL_Y}}" class="rc-label" font-weight="700" font-size="14" letter-spacing="1.4" fill="#a0a0a0" text-anchor="middle">SCORE</text>
    <text x="250" y="{{SCORE_Y}}" class="rc-label" font-weight="700" font-size="64" fill="{{GRADE_COLOR}}" text-anchor="middle">{{SCORE}}</text>

    <!-- Award certificate (Font Awesome faCertificate) in the award gold, a quarter of the way from score to footer -->
    <path transform="{{AWARD_ICON_TRANSFORM}}" fill="#d4af37" d="M239.2-8c-6.1-6.2-15-8.7-23.4-6.4S200.9-5.6 198.8 2.8L183.5 63c-1.1 4.4-5.6 7-9.9 5.7L113.8 51.9c-8.4-2.4-17.4 0-23.5 6.1s-8.5 15.1-6.1 23.5l16.9 59.8c1.2 4.3-1.4 8.8-5.7 9.9L35.1 166.5c-8.4 2.1-15 8.7-17.3 17.1s.2 17.3 6.4 23.4l44.5 43.3c3.2 3.1 3.2 8.3 0 11.5L24.3 305.1c-6.2 6.1-8.7 15-6.4 23.4s8.9 14.9 17.3 17.1l60.2 15.3c4.4 1.1 7 5.6 5.7 9.9L84.2 430.5c-2.4 8.4 0 17.4 6.1 23.5s15.1 8.5 23.5 6.1l59.8-16.9c4.3-1.2 8.8 1.4 9.9 5.7l15.3 60.2c2.1 8.4 8.7 15 17.1 17.3s17.3-.2 23.4-6.4l43.3-44.5c3.1-3.2 8.3-3.2 11.5 0L337.3 520c6.1 6.2 15 8.7 23.4 6.4s14.9-8.9 17.1-17.3L393.1 449c1.1-4.4 5.6-7 9.9-5.7l59.8 16.9c8.4 2.4 17.4 0 23.5-6.1s8.5-15.1 6.1-23.5l-16.9-59.8c-1.2-4.3 1.4-8.8 5.7-9.9l60.2-15.3c8.4-2.1 15-8.7 17.3-17.1s-.2-17.4-6.4-23.4l-44.5-43.3c-3.2-3.1-3.2-8.3 0-11.5l44.5-43.3c6.2-6.1 8.7-15 6.4-23.4s-8.9-14.9-17.3-17.1l-60.2-15.3c-4.4-1.1-7-5.6-5.7-9.9l16.9-59.8c2.4-8.4 0-17.4-6.1-23.5s-15.1-8.5-23.5-6.1L403 68.8c-4.3 1.2-8.8-1.4-9.9-5.7L377.8 2.8c-2.1-8.4-8.7-15-17.1-17.3s-17.3 .2-23.4 6.4L294 36.5c-3.1 3.2-8.3 3.2-11.5 0L239.2-8z"/>

    <!-- Footer between the bottom grade boxes, vertically centred on them -->
    <text x="250" y="669" class="rc-display" font-weight="700" font-size="12" letter-spacing="1.2" fill="#a0a0a0" text-anchor="middle">{{FOOTER}}</text>
  </g>
</svg>
